<svg xmlns="http://www.w3.org/2000/svg" version="1.1" xmlns:xlink="http://www.w3.org/1999/xlink" xmlns:svgjs="http://svgjs.dev/svgjs" width="500px" height="500px"><svg xmlns="http://www.w3.org/2000/svg" version="1.1" width="500px" height="500px" style="shape-rendering:geometricPrecision; text-rendering:geometricPrecision; image-rendering:optimizeQuality; fill-rule:evenodd; clip-rule:evenodd" xmlns:xlink="http://www.w3.org/1999/xlink">
<g><path style="opacity:1" fill="#098d89" d="M 238.5,38.5 C 245.532,43.5463 248.366,50.213 247,58.5C 245.333,60.1667 243.667,61.8333 242,63.5C 240.577,75.2985 242.911,86.2985 249,96.5C 253.59,102.918 259.757,105.418 267.5,104C 283.279,98.2179 293.613,87.2179 298.5,71C 296.174,67.2315 296.008,63.3981 298,59.5C 301.463,55.77 305.463,52.77 310,50.5C 311.506,55.7455 311.839,61.0788 311,66.5C 310.535,67.9308 309.701,69.0975 308.5,70C 305.751,71.1227 303.251,72.6227 301,74.5C 295.2,84.4421 294.2,94.7754 298,105.5C 306.014,114.787 315.18,115.953 325.5,109C 331.191,105.487 336.524,101.487 341.5,97C 343.466,93.1032 345.8,89.4365 348.5,86C 361.033,78.5488 362.866,80.7154 354,92.5C 345.8,96.0305 339.467,101.697 335,109.5C 329.664,122.677 326.164,136.344 324.5,150.5C 322.287,148.226 319.621,146.726 316.5,146C 291.186,140.198 265.519,137.365 239.5,137.5C 213.151,137.362 187.151,140.195 161.5,146C 158.671,147.247 156.005,148.747 153.5,150.5C 152.432,136.658 149.265,123.324 144,110.5C 140.414,102.579 134.58,97.0795 126.5,94C 115.713,80.937 117.38,78.6037 131.5,87C 133.235,89.1922 134.402,91.6922 135,94.5C 143.397,104.412 153.897,110.746 166.5,113.5C 177.161,112.003 182.828,105.836 183.5,95C 182.819,87.7743 180.819,80.9409 177.5,74.5C 166.47,69.5838 163.636,61.5838 169,50.5C 175.423,53.1187 179.923,57.6187 182.5,64C 180.856,67.3595 180.356,70.8595 181,74.5C 186.365,86.8619 194.865,96.3619 206.5,103C 214.631,105.924 221.798,104.424 228,98.5C 234.923,88.2225 237.923,76.8892 237,64.5C 233.931,61.458 231.764,57.958 230.5,54C 230.952,50.5906 232.119,47.424 234,44.5C 236.102,42.9052 237.602,40.9052 238.5,38.5 Z"></path></g>
<g><path style="opacity:1" fill="#0a8d89" d="M 213.5,142.5 C 244.044,141.17 274.377,143.003 304.5,148C 310.931,149.087 316.931,151.254 322.5,154.5C 318.054,156.817 313.387,158.65 308.5,160C 270.049,166.988 231.383,168.321 192.5,164C 183.71,162.969 175.044,161.303 166.5,159C 162.839,158.171 159.505,156.671 156.5,154.5C 157.5,153.667 158.5,152.833 159.5,152C 177.32,147.006 195.32,143.84 213.5,142.5 Z"></path></g>
<g><path style="opacity:1" fill="#0a7c91" d="M 92.5,169.5 C 96.1817,169.335 99.8484,169.501 103.5,170C 105.77,174.605 109.436,177.272 114.5,178C 197.833,178.667 281.167,178.667 364.5,178C 369.289,176.878 372.956,174.211 375.5,170C 379.152,169.501 382.818,169.335 386.5,169.5C 387.083,177.764 385.916,185.764 383,193.5C 380.26,197.958 376.427,201.125 371.5,203C 380.505,211.515 385.339,222.015 386,234.5C 386.5,243.494 386.666,252.494 386.5,261.5C 382.563,261.793 378.73,261.46 375,260.5C 370.37,243.233 362.703,227.567 352,213.5C 333.555,194.607 311.722,189.44 286.5,198C 274.711,203.127 267.211,211.961 264,224.5C 262.35,294.464 262.016,364.464 263,434.5C 264.416,442.257 268.583,448.09 275.5,452C 290.266,458.422 305.6,462.922 321.5,465.5C 321.5,468.167 321.5,470.833 321.5,473.5C 302.126,473.922 282.793,473.422 263.5,472C 254.146,469.825 246.146,465.325 239.5,458.5C 233.143,465.847 225.143,470.347 215.5,472C 196.207,473.422 176.874,473.922 157.5,473.5C 157.012,470.289 157.679,467.456 159.5,465C 174.467,462.676 188.801,458.343 202.5,452C 208.531,448.306 212.697,443.139 215,436.5C 216.142,402.528 216.642,368.528 216.5,334.5C 216.333,302.833 216.167,271.167 216,239.5C 216.611,214.488 204.778,199.655 180.5,195C 156.9,191.527 137.733,199.027 123,217.5C 113.506,230.823 107.006,245.489 103.5,261.5C 99.8333,261.5 96.1667,261.5 92.5,261.5C 92.3335,250.828 92.5002,240.161 93,229.5C 94.8538,219.126 99.3538,210.126 106.5,202.5C 100.476,199.976 96.3096,195.642 94,189.5C 92.6712,182.908 92.1712,176.241 92.5,169.5 Z"></path></g>
</svg><style>@media (prefers-color-scheme: light) { :root { filter: none; } }
@media (prefers-color-scheme: dark) { :root { filter: none; } }
</style></svg>